<?xml version="1.0" encoding="UTF-8"?>
<svg xmlns="http://www.w3.org/2000/svg" version="1.1" viewBox="0 0 1920 1080">
  <defs>
    <style>
      .cls-1 {
        fill: #ec671a;
      }
    </style>
  </defs>
  <!-- Generator: Adobe Illustrator 28.6.0, SVG Export Plug-In . SVG Version: 1.2.0 Build 709)  -->
  <g>
    <g id="Camada_1">
      <path class="cls-1" d="M1379.92,326.53c0,63.58-32.25,140.82-55.19,181.61-12.72,22.61-15.82,27.82-15.82,31.34,0,2.47,1.51,4.57,4.47,4.57,15.28,0,142.57-97.99,231.88-97.99,52.35,0,100.24,27.82,100.24,93.52s-44.62,174.74-193.32,254.39c-10.64,5.7-32.94,17.53-48.58,25.82-20.01,10.61-25.25,15.81-25.25,22.42,0,16.88,59.11,8.82,59.11,43.42,0,18.47-22.54,49.04-81.58,82.01-53.97,30.14-125.88,54.89-215.3,54.89-63.68,0-99.37-12.5-106.18-12.5-2.6,0-4.62.79-7.47,3.27-3.69,3.21-49.29,42.21-155.38,42.21-121.97,0-258.61-49.94-258.61-96.54,0-22.67,28.67-29,28.67-33.86,0-1.97-3.38-2.7-4.75-3.07-170.24-45.91-362.36-136.65-362.36-258.97,0-33.81,23.87-51.27,58.29-51.27,59.82,0,142.62,27.69,160.64,27.69,4.39,0,6.05-2.4,6.05-4.86,0-3.31-2.65-7.01-7.82-11.4-109.08-92.68-154.58-177.91-154.58-249.22,0-92.27,66.61-162.12,155.11-179.52,163.11-32.08,261.45,107.09,348.33,218.9,2.43,3.13,6.86,9.61,12.28,9.61,6.68,0,8.38-6.43,14.43-30.97,6.02-24.45,7.85-32.07,15.58-63.51,25.45-103.52,86.78-234.85,263.86-234.85,104.24,0,233.25,70.53,233.25,232.84ZM875.27,559.14c-32.93,0-50.32-18.47-83.96-60.54-5.34-6.68-28.65-34.89-34.59-42.06-81.38-98.23-140.39-142.6-207.82-142.6-40.73,0-101.84,22.78-101.84,100.47,0,10.15,1.32,53.67,43.51,105.25,53.74,65.69,131.53,152.5,138.67,160.6,7.29,8.27,11.12,17.09,11.06,24.92-.03,4.36-1.38,23.42-33.85,23.42s-170.27-40.53-218.78-40.53c-22.49,0-36.97,9.73-36.97,26.22,0,42.6,83.15,130.19,344.48,189.12,32.82,7.4,35.71,19.14,35.71,23.15,0,15.28-40.68,22.36-40.68,48.25,0,38,122.86,54.84,158.1,54.84,62.71,0,93.49-18.39,116.87-34.45,19.97-13.72,31.33-19,44.66-19,28.05,0,54.27,17.51,139.44,17.51,103.61,0,212.38-54.07,212.38-83.52,0-11.51-17.2-14.42-55.89-27.18-20.31-6.69-32.01-14.92-32.01-27.59s9.91-21.58,39.21-34.3c31.32-13.59,53.71-23.58,76.81-34.71,125.99-60.69,174.82-134.74,175.11-188.29.19-34.32-19.55-57.6-51.68-57.6-42.34,0-88.77,24.49-134.06,47.44-84.74,42.94-115.6,59.36-145.31,59.36-21.05,0-30.87-17.97-31.01-28.61-.08-6.16.94-13.23,3.75-20.82,10.94-29.62,18.73-49.45,30.7-81.2,17.62-46.69,38.96-100.04,38.96-152.78,0-82.46-64.02-138.67-148.06-138.67-94.07,0-134.33,88.69-158.2,159.18-6.52,19.26-31.3,94.38-38.85,116.91-13.2,39.39-30.62,57.79-55.84,57.79Z"/>
    </g>
  </g>
</svg>